<svg width="45" height="45" viewBox="0 0 45 45" fill="none" xmlns="http://www.w3.org/2000/svg">
<path d="M30.9375 17.6258L14.0625 7.89453" stroke="#2C3E50" stroke-width="3" stroke-linecap="round" stroke-linejoin="round"/>
<path d="M39.375 29.9991V14.9991C39.3743 14.3415 39.2007 13.6956 38.8716 13.1263C38.5425 12.5569 38.0695 12.0841 37.5 11.7553L24.375 4.25533C23.8049 3.9262 23.1583 3.75293 22.5 3.75293C21.8417 3.75293 21.1951 3.9262 20.625 4.25533L7.5 11.7553C6.93049 12.0841 6.45746 12.5569 6.12837 13.1263C5.79927 13.6956 5.62567 14.3415 5.625 14.9991V29.9991C5.62567 30.6567 5.79927 31.3026 6.12837 31.8719C6.45746 32.4412 6.93049 32.914 7.5 33.2428L20.625 40.7428C21.1951 41.072 21.8417 41.2453 22.5 41.2453C23.1583 41.2453 23.8049 41.072 24.375 40.7428L37.5 33.2428C38.0695 32.914 38.5425 32.4412 38.8716 31.8719C39.2007 31.3026 39.3743 30.6567 39.375 29.9991Z" stroke="#2C3E50" stroke-width="3" stroke-linecap="round" stroke-linejoin="round"/>
<path d="M6.13135 13.0498L22.5001 22.5186L38.8688 13.0498" stroke="#2C3E50" stroke-width="3" stroke-linecap="round" stroke-linejoin="round"/>
<path d="M22.5 41.4V22.5" stroke="#2C3E50" stroke-width="3" stroke-linecap="round" stroke-linejoin="round"/>
</svg>
