<svg width="50" height="50" viewBox="0 0 50 50" fill="none" xmlns="http://www.w3.org/2000/svg">
<path d="M24.9998 4.16699C22.264 4.16699 19.5549 4.70586 17.0273 5.75284C14.4996 6.79981 12.203 8.33438 10.2684 10.2689C6.36144 14.1759 4.1665 19.475 4.1665 25.0003C4.1665 25.5529 4.386 26.0828 4.7767 26.4735C5.1674 26.8642 5.6973 27.0837 6.24984 27.0837H22.9165V39.5837C22.9165 41.2413 23.575 42.831 24.7471 44.0031C25.9192 45.1752 27.5089 45.8337 29.1665 45.8337C30.8241 45.8337 32.4138 45.1752 33.5859 44.0031C34.758 42.831 35.4165 41.2413 35.4165 39.5837C35.4165 39.0311 35.197 38.5012 34.8063 38.1105C34.4156 37.7198 33.8857 37.5003 33.3332 37.5003C32.7806 37.5003 32.2507 37.7198 31.86 38.1105C31.4693 38.5012 31.2498 39.0311 31.2498 39.5837C31.2498 40.1362 31.0303 40.6661 30.6396 41.0568C30.2489 41.4475 29.719 41.667 29.1665 41.667C28.614 41.667 28.0841 41.4475 27.6934 41.0568C27.3027 40.6661 27.0832 40.1362 27.0832 39.5837V27.0837H43.7498C44.3024 27.0837 44.8323 26.8642 45.223 26.4735C45.6137 26.0828 45.8332 25.5529 45.8332 25.0003C45.8332 22.2645 45.2943 19.5554 44.2473 17.0278C43.2004 14.5001 41.6658 12.2035 39.7312 10.2689C37.7967 8.33438 35.5 6.79981 32.9724 5.75284C30.4448 4.70586 27.7357 4.16699 24.9998 4.16699ZM8.45817 22.917C8.95539 18.8801 10.9117 15.1643 13.9585 12.4697C17.0054 9.77513 20.9324 8.28774 24.9998 8.28774C29.0673 8.28774 32.9943 9.77513 36.0411 12.4697C39.088 15.1643 41.0443 18.8801 41.5415 22.917H8.45817Z" fill="#2C3E50"/>
</svg>
