<svg width="30" height="30" viewBox="0 0 30 30" fill="none" xmlns="http://www.w3.org/2000/svg">
<g clip-path="url(#clip0_194_783)">
<path d="M19.8004 3.05078H10.2004C9.07232 3.05078 8.15039 3.97271 8.15039 5.10078V24.9008C8.15039 26.0289 9.07232 26.9508 10.2004 26.9508H19.8004C20.9285 26.9508 21.8504 26.0289 21.8504 24.9008V5.10078C21.8504 3.97271 20.9285 3.05078 19.8004 3.05078ZM20.1504 24.9008C20.1504 25.0927 19.9923 25.2508 19.8004 25.2508H10.2004C10.0085 25.2508 9.85039 25.0927 9.85039 24.9008V23.9508H20.1504V24.9008ZM20.1504 22.2508H9.85039V7.75078H20.1504V22.2508ZM20.1504 6.05078H9.85039V5.10078C9.85039 4.90885 10.0085 4.75078 10.2004 4.75078H19.8004C19.9923 4.75078 20.1504 4.90885 20.1504 5.10078V6.05078Z" fill="#2C3E50" stroke="#2C3E50" stroke-width="0.5"/>
<path d="M241.2 -111V394.2H-294V-111H241.2ZM243.6 -113.4H-296.4V396.6H243.6V-113.4Z" fill="#0000FF"/>
</g>
<defs>
<clipPath id="clip0_194_783">
<rect width="30" height="30" fill="white"/>
</clipPath>
</defs>
</svg>
