<svg width="30" height="30" viewBox="0 0 30 30" fill="none" xmlns="http://www.w3.org/2000/svg">
<path d="M20.625 11.7512L9.375 5.26367" stroke="#2C3E50" stroke-width="2" stroke-linecap="round" stroke-linejoin="round"/>
<path d="M26.25 19.9994V9.99939C26.2496 9.56098 26.1338 9.1304 25.9144 8.75084C25.695 8.37129 25.3797 8.05609 25 7.83689L16.25 2.83689C15.87 2.61747 15.4388 2.50195 15 2.50195C14.5612 2.50195 14.13 2.61747 13.75 2.83689L5 7.83689C4.62033 8.05609 4.30498 8.37129 4.08558 8.75084C3.86618 9.1304 3.75045 9.56098 3.75 9.99939V19.9994C3.75045 20.4378 3.86618 20.8684 4.08558 21.2479C4.30498 21.6275 4.62033 21.9427 5 22.1619L13.75 27.1619C14.13 27.3813 14.5612 27.4968 15 27.4968C15.4388 27.4968 15.87 27.3813 16.25 27.1619L25 22.1619C25.3797 21.9427 25.695 21.6275 25.9144 21.2479C26.1338 20.8684 26.2496 20.4378 26.25 19.9994Z" stroke="#2C3E50" stroke-width="2" stroke-linecap="round" stroke-linejoin="round"/>
<path d="M4.08789 8.69922L15.0004 15.0117L25.9129 8.69922" stroke="#2C3E50" stroke-width="2" stroke-linecap="round" stroke-linejoin="round"/>
<path d="M15 27.6V15" stroke="#2C3E50" stroke-width="2" stroke-linecap="round" stroke-linejoin="round"/>
</svg>
