<svg width="30" height="30" viewBox="0 0 30 30" fill="none" xmlns="http://www.w3.org/2000/svg">
<g clip-path="url(#clip0_194_791)">
<path d="M7.5 23.875H7V24.375V27.1875V27.6875H7.5H22.5009H23.0011L23.0009 27.1873L23 24.3748L22.9998 23.875H22.5H7.5ZM21.4496 7.9375L21.448 7.9375C21.3614 7.93769 21.2768 7.91218 21.2048 7.86419C21.1329 7.81621 21.0768 7.74792 21.0437 7.66799C21.0106 7.58807 21.0019 7.50011 21.0189 7.41528C21.0359 7.33045 21.0777 7.25258 21.139 7.19155L21.1398 7.19074L23.1282 5.2023C23.2103 5.12028 23.3215 5.0742 23.4375 5.0742C23.5535 5.0742 23.6647 5.12028 23.7468 5.2023C23.8288 5.28432 23.8749 5.39557 23.8749 5.51156C23.8749 5.62756 23.8288 5.7388 23.7468 5.82082L21.7583 7.80926L21.7578 7.80975C21.7174 7.8503 21.6693 7.88246 21.6164 7.90438C21.5636 7.9263 21.5068 7.93756 21.4496 7.9375ZM8.55204 7.9375L8.55042 7.9375C8.49316 7.93756 8.43645 7.9263 8.38355 7.90438L8.19213 8.36629L8.38355 7.90438C8.33065 7.88246 8.28261 7.8503 8.24217 7.80975L8.24168 7.80926L6.25324 5.82082C6.21263 5.78021 6.18041 5.73199 6.15843 5.67893C6.13645 5.62587 6.12514 5.569 6.12514 5.51156C6.12514 5.45413 6.13645 5.39725 6.15843 5.34419C6.18041 5.29113 6.21263 5.24292 6.25324 5.2023C6.29385 5.16169 6.34207 5.12947 6.39513 5.1075C6.44819 5.08552 6.50507 5.0742 6.5625 5.0742C6.61993 5.0742 6.67681 5.08552 6.72987 5.1075C6.78293 5.12947 6.83115 5.16169 6.87176 5.2023L8.8602 7.19074L8.861 7.19154C8.92231 7.25258 8.96411 7.33045 8.98108 7.41528C8.99806 7.50011 8.98945 7.58807 8.95634 7.66799C8.92324 7.74792 8.86713 7.81621 8.79515 7.86419C8.72317 7.91218 8.63855 7.93769 8.55204 7.9375ZM22.5 28.5625H7.5C6.74208 28.5625 6.125 27.9454 6.125 27.1875V24.375C6.125 23.6171 6.74208 23 7.5 23H22.5C23.2579 23 23.875 23.6171 23.875 24.375V27.1875C23.875 27.9454 23.2579 28.5625 22.5 28.5625ZM15 5.125C14.884 5.125 14.7727 5.07891 14.6906 4.99686C14.6086 4.91481 14.5625 4.80353 14.5625 4.6875V1.875C14.5625 1.75897 14.6086 1.64769 14.6906 1.56564C14.7727 1.48359 14.884 1.4375 15 1.4375C15.116 1.4375 15.2273 1.48359 15.3094 1.56564C15.3914 1.64769 15.4375 1.75897 15.4375 1.875V4.6875C15.4375 4.80353 15.3914 4.91481 15.3094 4.99686C15.2273 5.07891 15.116 5.125 15 5.125Z" fill="#2C3E50" stroke="#2C3E50"/>
<path d="M10.75 22.5V23H11.25H18.75H19.25V22.5V13.125C19.25 10.7807 17.3443 8.875 15 8.875C12.6557 8.875 10.75 10.7807 10.75 13.125V22.5ZM9.875 23.875V13.125C9.875 10.299 12.174 8 15 8C17.826 8 20.125 10.299 20.125 13.125V23.875H9.875Z" fill="#2C3E50" stroke="#2C3E50"/>
</g>
<defs>
<clipPath id="clip0_194_791">
<rect width="30" height="30" fill="white"/>
</clipPath>
</defs>
</svg>
