<svg width="30" height="30" viewBox="0 0 30 30" fill="none" xmlns="http://www.w3.org/2000/svg">
<path d="M14.5 2C12.8585 2 11.233 2.32332 9.71646 2.95151C8.19989 3.57969 6.8219 4.50043 5.66117 5.66117C3.31696 8.00537 2 11.1848 2 14.5C2 14.8315 2.1317 15.1495 2.36612 15.3839C2.60054 15.6183 2.91848 15.75 3.25 15.75H13.25V23.25C13.25 24.2446 13.6451 25.1984 14.3484 25.9017C15.0516 26.6049 16.0054 27 17 27C17.9946 27 18.9484 26.6049 19.6517 25.9017C20.3549 25.1984 20.75 24.2446 20.75 23.25C20.75 22.9185 20.6183 22.6005 20.3839 22.3661C20.1495 22.1317 19.8315 22 19.5 22C19.1685 22 18.8505 22.1317 18.6161 22.3661C18.3817 22.6005 18.25 22.9185 18.25 23.25C18.25 23.5815 18.1183 23.8995 17.8839 24.1339C17.6495 24.3683 17.3315 24.5 17 24.5C16.6685 24.5 16.3505 24.3683 16.1161 24.1339C15.8817 23.8995 15.75 23.5815 15.75 23.25V15.75H25.75C26.0815 15.75 26.3995 15.6183 26.6339 15.3839C26.8683 15.1495 27 14.8315 27 14.5C27 12.8585 26.6767 11.233 26.0485 9.71646C25.4203 8.19989 24.4996 6.8219 23.3388 5.66117C22.1781 4.50043 20.8001 3.57969 19.2835 2.95151C17.767 2.32332 16.1415 2 14.5 2ZM4.575 13.25C4.87333 10.8278 6.04711 8.59839 7.87522 6.98164C9.70332 5.36488 12.0595 4.47245 14.5 4.47245C16.9405 4.47245 19.2967 5.36488 21.1248 6.98164C22.9529 8.59839 24.1267 10.8278 24.425 13.25H4.575Z" fill="#2C3E50"/>
</svg>
